<svg width="134" height="128" viewBox="0 0 134 128" fill="none" xmlns="http://www.w3.org/2000/svg">
<rect width="46" height="46" rx="15" fill="black"/>
<rect y="52" width="46" height="47" rx="15" fill="black"/>
<rect x="53" y="52" width="46" height="47" rx="15" fill="#FF672D"/>
<path fill-rule="evenodd" clip-rule="evenodd" d="M103.63 109.788L106.537 106.883L112.883 100.537L115.788 97.6297C118.765 94.6572 120.252 93.1685 119.901 91.5687C119.551 89.9688 117.574 89.2414 113.627 87.7866L100.457 82.9363C92.5807 80.0339 88.644 78.5791 86.614 80.6091C84.584 82.6391 86.034 86.5783 88.9388 94.4566L93.7867 107.627C95.2415 111.574 95.9689 113.548 97.5688 113.901C99.1686 114.254 100.655 112.765 103.63 109.788Z" fill="black"/>
<path opacity="0.5" d="M106.537 106.883L116.054 116.4C117.04 117.386 117.533 117.879 118.084 118.106C118.814 118.411 119.638 118.411 120.37 118.106C120.921 117.879 121.414 117.386 122.4 116.4C123.384 115.414 123.877 114.921 124.106 114.37C124.408 113.638 124.408 112.816 124.106 112.084C123.877 111.533 123.384 111.04 122.4 110.054L112.881 100.537L106.537 106.883Z" fill="black"/>
<rect x="53" width="46" height="46" rx="15" fill="black"/>
</svg>
