<svg width="377" height="377" viewBox="0 0 377 377" fill="none" xmlns="http://www.w3.org/2000/svg">
<path d="M188.5 0L210.749 120.023L299.298 36.0003L246.75 146.179L367.774 130.25L260.501 188.5L367.774 246.75L246.75 230.821L299.298 341L210.749 256.977L188.5 377L166.251 256.977L77.7025 341L130.25 230.821L9.22585 246.75L116.499 188.5L9.22585 130.25L130.25 146.179L77.7025 36.0003L166.251 120.023L188.5 0Z" fill="#FF672D"/>
<path d="M175.989 153.438C180.563 154.664 183.536 157.415 184.908 161.692C186.297 165.907 186.113 171.291 184.357 177.844C182.601 184.397 180.083 189.221 176.802 192.317C173.599 195.368 169.617 196.256 164.857 194.981C161.952 194.202 159.703 192.705 158.11 190.489C156.517 188.274 155.609 185.479 155.387 182.107C155.242 178.689 155.75 174.817 156.909 170.489C158.665 163.936 161.105 159.157 164.23 156.151C167.371 153.084 171.29 152.179 175.989 153.438ZM174.448 159.187C172.099 158.558 170.028 159.361 168.237 161.598C166.523 163.789 165.004 167.357 163.679 172.303C162.353 177.249 161.877 181.129 162.249 183.946C162.682 186.778 164.074 188.509 166.423 189.139C168.834 189.785 170.958 189.029 172.795 186.871C174.649 184.651 176.246 181.037 177.588 176.03C178.913 171.084 179.32 167.218 178.808 164.43C178.312 161.581 176.859 159.833 174.448 159.187ZM218.117 165.72L163.656 222.09L156.516 220.176L210.977 163.807L218.117 165.72ZM209.405 190.817C212.434 191.628 214.745 193.142 216.338 195.358C217.947 197.512 218.863 200.275 219.086 203.648C219.387 206.975 218.95 210.833 217.774 215.222C216.018 221.775 213.499 226.6 210.218 229.696C207.015 232.747 203.034 233.635 198.274 232.359C195.368 231.581 193.119 230.084 191.526 227.868C189.933 225.652 189.026 222.858 188.803 219.485C188.659 216.068 189.166 212.195 190.326 207.868C192.082 201.315 194.522 196.535 197.646 193.53C200.787 190.462 204.707 189.558 209.405 190.817ZM207.84 196.659C205.491 196.029 203.428 196.802 201.653 198.976C199.939 201.168 198.42 204.736 197.095 209.681C195.753 214.689 195.268 218.601 195.64 221.417C196.09 224.188 197.49 225.888 199.839 226.517C202.25 227.163 204.374 226.407 206.211 224.249C208.048 222.091 209.646 218.478 211.004 213.408C212.329 208.463 212.736 204.596 212.224 201.809C211.712 199.021 210.251 197.305 207.84 196.659Z" fill="black"/>
</svg>
