<svg width="126" height="126" viewBox="0 0 126 126" fill="none" xmlns="http://www.w3.org/2000/svg">
<g id="tabler:flag-question">
<path id="Vector" d="M70.875 78.7498C67.9479 77.5019 65.2777 75.7218 63 73.4998C58.0931 68.6901 51.496 65.9961 44.625 65.9961C37.754 65.9961 31.1569 68.6901 26.25 73.4998M26.25 73.4998V26.2498C31.1569 21.4401 37.754 18.7461 44.625 18.7461C51.496 18.7461 58.0931 21.4401 63 26.2498C67.9069 31.0596 74.504 33.7536 81.375 33.7536C88.246 33.7536 94.8431 31.0596 99.75 26.2498V57.7498M26.25 73.4998V110.25M99.75 115.5V115.552M99.75 99.7498C102.104 99.7423 104.387 98.9455 106.234 97.4868C108.081 96.0282 109.385 93.9921 109.938 91.7044C110.491 89.4167 110.26 87.0096 109.283 84.8685C108.306 82.7273 106.639 80.9758 104.549 79.8943C102.46 78.8245 100.071 78.4927 97.7697 78.9531C95.4687 79.4135 93.3911 80.639 91.875 82.4301" stroke="black" stroke-width="10" stroke-linecap="round" stroke-linejoin="round"/>
<path id="Intersect" fill-rule="evenodd" clip-rule="evenodd" d="M106.828 75.4441C103.735 73.8596 100.197 73.3683 96.7888 74.0502C93.3809 74.7321 90.304 76.5469 88.0586 79.1996C86.2745 81.3073 86.5369 84.4622 88.6446 86.2463C90.7523 88.0304 93.9072 87.7681 95.6913 85.6604C96.4782 84.7308 97.5565 84.0948 98.7507 83.8558C99.9416 83.6176 101.178 83.7881 102.26 84.3396C103.352 84.9073 104.223 85.824 104.734 86.9442C105.247 88.0672 105.368 89.3298 105.078 90.5297C104.788 91.7297 104.104 92.7977 103.135 93.5628C102.166 94.3279 100.969 94.7458 99.734 94.7498C96.9726 94.7586 94.7412 97.0043 94.75 99.7657C94.7588 102.527 97.0045 104.759 99.766 104.75C103.239 104.739 106.607 103.563 109.332 101.411C112.058 99.2585 113.982 96.2543 114.798 92.8788C115.614 89.5034 115.274 85.9518 113.832 82.7926C112.39 79.6334 109.93 77.0491 106.846 75.4534L106.828 75.4441ZM104.75 115.5C104.75 112.738 102.511 110.5 99.75 110.5C96.9886 110.5 94.75 112.738 94.75 115.5V115.552C94.75 118.314 96.9886 120.552 99.75 120.552C102.511 120.552 104.75 118.314 104.75 115.552V115.5Z" fill="#FF672D"/>
</g>
</svg>
